<svg width="107" height="32" viewBox="0 0 107 32" fill="none" xmlns="http://www.w3.org/2000/svg">
<path d="M102 0H31V32H102C104.761 32 107 29.7614 107 27V5C107 2.23858 104.761 0 102 0Z" fill="#0F1418"/>
<path d="M31 0H5C2.23858 0 0 2.23858 0 5V27C0 29.7614 2.23858 32 5 32H31V0Z" fill="#F24E1E"/>
<path d="M11.5 6C10.7044 6 9.94129 6.31607 9.37868 6.87868C8.81607 7.44129 8.5 8.20435 8.5 9C8.5 9.79565 8.81607 10.5587 9.37868 11.1213C9.94129 11.6839 10.7044 12 11.5 12H18.5C19.2956 12 20.0587 11.6839 20.6213 11.1213C21.1839 10.5587 21.5 9.79565 21.5 9C21.5 8.20435 21.1839 7.44129 20.6213 6.87868C20.0587 6.31607 19.2956 6 18.5 6H11.5Z" fill="white"/>
<path d="M18.5 13C17.7044 13 16.9413 13.3161 16.3787 13.8787C15.8161 14.4413 15.5 15.2044 15.5 16C15.5 16.7956 15.8161 17.5587 16.3787 18.1213C16.9413 18.6839 17.7044 19 18.5 19C19.2956 19 20.0587 18.6839 20.6213 18.1213C21.1839 17.5587 21.5 16.7956 21.5 16C21.5 15.2044 21.1839 14.4413 20.6213 13.8787C20.0587 13.3161 19.2956 13 18.5 13V13Z" fill="white"/>
<path d="M8.5 16C8.5 15.2044 8.81607 14.4413 9.37868 13.8787C9.94129 13.3161 10.7044 13 11.5 13H14.5V19H11.5C10.7044 19 9.94129 18.6839 9.37868 18.1213C8.81607 17.5587 8.5 16.7956 8.5 16Z" fill="white"/>
<path d="M11.5 20C10.9067 20 10.3266 20.1759 9.83329 20.5056C9.33994 20.8352 8.95543 21.3038 8.72836 21.8519C8.5013 22.4001 8.44189 23.0033 8.55765 23.5853C8.6734 24.1672 8.95912 24.7018 9.37868 25.1213C9.79824 25.5409 10.3328 25.8266 10.9147 25.9424C11.4967 26.0581 12.0999 25.9987 12.6481 25.7716C13.1962 25.5446 13.6648 25.1601 13.9944 24.6667C14.3241 24.1734 14.5 23.5933 14.5 23V20H11.5Z" fill="white"/>
<path d="M51.812 17.4517C51.812 20.606 50.3423 22.1831 47.4029 22.1831C44.5513 22.1831 43.1255 20.6426 43.1255 17.5615V11.4971H45.4986V17.5908C45.4986 19.29 46.1626 20.1396 47.4908 20.1396C48.7945 20.1396 49.4463 19.3193 49.4463 17.6787V11.4971H51.812V17.4517ZM57.1776 22H54.8119V11.4971H57.1776V22ZM69.9668 11.4971L64.8472 23.7432H62.7817L67.8794 11.4971H69.9668ZM84.3234 17.4517C84.3234 20.606 82.8537 22.1831 79.9142 22.1831C77.0626 22.1831 75.6369 20.6426 75.6369 17.5615V11.4971H78.0099V17.5908C78.0099 19.29 78.674 20.1396 80.0021 20.1396C81.3058 20.1396 81.9577 19.3193 81.9577 17.6787V11.4971H84.3234V17.4517ZM95.8999 22H93.0947L91.2856 18.5796C91.2172 18.4526 91.1464 18.2183 91.0732 17.8765H91.0439C91.0097 18.0376 90.9292 18.2817 90.8022 18.6089L88.9858 22H86.166L89.5131 16.7485L86.4516 11.4971H89.33L90.8315 14.6465C90.9487 14.8955 91.0537 15.1909 91.1464 15.5327H91.1757C91.2343 15.3276 91.3442 15.0225 91.5053 14.6172L93.1753 11.4971H95.812L92.6626 16.7046L95.8999 22Z" fill="white"/>
<path d="M102 0H5C2.23858 0 0 2.23858 0 5V27C0 29.7614 2.23858 32 5 32H102C104.761 32 107 29.7614 107 27V5C107 2.23858 104.761 0 102 0Z" fill="url(#paint0_linear)"/>
<defs>
<linearGradient id="paint0_linear" x1="0" y1="0" x2="0" y2="32" gradientUnits="userSpaceOnUse">
<stop stop-color="#BBBBBB" stop-opacity="0.1"/>
<stop offset="1" stop-opacity="0.1"/>
</linearGradient>
</defs>
</svg>
